<svg xmlns="http://www.w3.org/2000/svg" width="1200" height="340" viewBox="0 0 1200 340" role="img" aria-labelledby="title desc">
  <title id="title">Weiyi Li — LLM algorithms and AI infrastructure</title>
  <desc id="desc">M.S. student at Xi'an Jiaotong University and AI Algorithm Intern at Huawei, focused on foundation models, multimodal learning, reinforcement learning, and efficient inference.</desc>
  <defs>
    <linearGradient id="bg" x1="0" y1="0" x2="1" y2="1">
      <stop offset="0" stop-color="#f8fafc"/>
      <stop offset="0.58" stop-color="#f1f5fa"/>
      <stop offset="1" stop-color="#e9eef7"/>
    </linearGradient>
    <pattern id="grid" width="32" height="32" patternUnits="userSpaceOnUse">
      <path d="M32 0H0V32" fill="none" stroke="#50617b" stroke-opacity=".065"/>
    </pattern>
  </defs>
  <rect width="1200" height="340" rx="28" fill="url(#bg)"/>
  <rect width="1200" height="340" rx="28" fill="url(#grid)"/>
  <circle cx="120" cy="24" r="180" fill="#168295" fill-opacity=".045"/>
  <circle cx="1090" cy="330" r="210" fill="#6d4fd3" fill-opacity=".055"/>

  <g font-family="ui-sans-serif,-apple-system,BlinkMacSystemFont,'Segoe UI',sans-serif">
    <text x="68" y="65" fill="#5d6d86" font-size="15" font-weight="680" letter-spacing="4">WEIYI LI · 李维逸</text>
    <text x="68" y="142" fill="#152238" font-size="54" font-weight="740" letter-spacing="-1.8">LLM Algorithms</text>
    <text x="68" y="205" fill="#152238" font-size="54" font-weight="740" letter-spacing="-1.8">× AI Infrastructure</text>
    <text x="70" y="251" fill="#4f6079" font-size="20" font-weight="470">Foundation models · multimodal intelligence · efficient inference</text>
    <text x="70" y="299" fill="#71819a" font-size="15" font-weight="590" letter-spacing=".5">M.S. @ XJTU   ·   AI ALGORITHM INTERN @ HUAWEI</text>

    <rect x="786" y="32" width="358" height="276" rx="25" fill="#fff" fill-opacity=".72" stroke="#a7b4c8" stroke-opacity=".35"/>
    <text x="814" y="67" fill="#73839a" font-size="11" font-weight="760" letter-spacing="2.4">FOCUS AREAS</text>

    <rect x="814" y="86" width="143" height="82" rx="17" fill="#e8f5f6" stroke="#b8dadd"/>
    <circle cx="836" cy="109" r="7" fill="#168295"/>
    <text x="850" y="113" fill="#126c7b" font-size="12" font-weight="750">MODELS</text>
    <text x="832" y="141" fill="#26384f" font-size="14" font-weight="650">Pre · Post-training</text>

    <rect x="972" y="86" width="143" height="82" rx="17" fill="#edf3fa" stroke="#c7d7e8"/>
    <circle cx="994" cy="109" r="7" fill="#3b6ea8"/>
    <text x="1008" y="113" fill="#346291" font-size="12" font-weight="750">VLM</text>
    <text x="990" y="141" fill="#26384f" font-size="14" font-weight="650">Vision · Language</text>

    <rect x="814" y="184" width="143" height="82" rx="17" fill="#f0edff" stroke="#d4ccf3"/>
    <circle cx="836" cy="207" r="7" fill="#6d4fd3"/>
    <text x="850" y="211" fill="#5f47be" font-size="12" font-weight="750">RL · AGENTS</text>
    <text x="832" y="239" fill="#26384f" font-size="14" font-weight="650">Reason · Align</text>

    <rect x="972" y="184" width="143" height="82" rx="17" fill="#fff3dd" stroke="#ecd3a9"/>
    <circle cx="994" cy="207" r="7" fill="#b36c0c"/>
    <text x="1008" y="211" fill="#945908" font-size="12" font-weight="750">AI INFRA</text>
    <text x="990" y="239" fill="#26384f" font-size="14" font-weight="650">Inference · Serving</text>
  </g>
</svg>
