<svg xmlns="http://www.w3.org/2000/svg" width="520" height="940" viewBox="0 0 520 940" role="img" aria-labelledby="title desc">
  <title id="title">Weiyi Li — research and engineering signal board</title>
  <desc id="desc">Mobile visual summary of cross-view research, efficient LLM inference, agent systems, competitive programming, and future work in embodied navigation and reinforcement learning.</desc>
  <defs>
    <linearGradient id="next" x1="0" y1="0" x2="1" y2="1">
      <stop offset="0" stop-color="#e9f7f8"/>
      <stop offset="0.52" stop-color="#f0edff"/>
      <stop offset="1" stop-color="#fff5e5"/>
    </linearGradient>
    <pattern id="microgrid" width="18" height="18" patternUnits="userSpaceOnUse">
      <path d="M18 0H0V18" fill="none" stroke="#607089" stroke-opacity=".09"/>
    </pattern>
  </defs>

  <rect width="520" height="940" rx="26" fill="#f8fafc"/>
  <rect width="520" height="940" rx="26" fill="url(#microgrid)"/>

  <g font-family="ui-sans-serif,-apple-system,BlinkMacSystemFont,'Segoe UI',sans-serif">
    <!-- Research -->
    <rect x="14" y="14" width="492" height="194" rx="22" fill="#fff" stroke="#dbe3ec"/>
    <rect x="14" y="14" width="5" height="194" rx="3" fill="#168295"/>
    <text x="42" y="47" fill="#168295" font-size="13" font-weight="750" letter-spacing="2">RESEARCH · LUCL</text>
    <text x="42" y="84" fill="#152238" font-size="25" font-weight="730">Cross-view learning</text>
    <text x="42" y="113" fill="#607089" font-size="16">uncertainty · contrastive · multimodal</text>
    <rect x="42" y="143" width="136" height="32" rx="16" fill="#e7f5f6"/>
    <text x="60" y="164" fill="#126c7b" font-size="13" font-weight="700">3× FIRST AUTHOR</text>
    <text x="192" y="164" fill="#8794a7" font-size="13" font-weight="650">TIP · AAAI · AAS</text>
    <rect x="410" y="53" width="58" height="48" rx="9" fill="#edf4f7" stroke="#b8ced5"/>
    <circle cx="435" cy="76" r="5" fill="#168295"/>
    <rect x="430" y="119" width="58" height="48" rx="9" fill="#f2f0fb" stroke="#cbc4e5"/>
    <path d="M438 133h42M438 143h28M438 153h36" stroke="#7a68bd" stroke-width="2" stroke-linecap="round"/>
    <path d="M437 101c3 9 9 13 17 18" fill="none" stroke="#6d4fd3" stroke-width="2.5" stroke-dasharray="4 5"/>

    <!-- Inference -->
    <rect x="14" y="222" width="492" height="194" rx="22" fill="#fff" stroke="#dbe3ec"/>
    <rect x="14" y="222" width="5" height="194" rx="3" fill="#6d4fd3"/>
    <text x="42" y="255" fill="#6d4fd3" font-size="13" font-weight="750" letter-spacing="2">SYSTEMS · INFERENCE</text>
    <text x="42" y="292" fill="#152238" font-size="25" font-weight="730">Faster tokens, less wait</text>
    <text x="42" y="321" fill="#607089" font-size="16">decoding · KV cache · serving</text>
    <rect x="42" y="351" width="94" height="32" rx="16" fill="#f0edff"/>
    <text x="64" y="372" fill="#5f47be" font-size="13" font-weight="700">TTFT ↓</text>
    <rect x="146" y="351" width="126" height="32" rx="16" fill="#edf7f4"/>
    <text x="165" y="372" fill="#277660" font-size="13" font-weight="700">THROUGHPUT ↑</text>
    <path d="M391 373V267M391 373h85" stroke="#c9d1df" stroke-width="1.5"/>
    <rect x="403" y="335" width="12" height="38" rx="4" fill="#dcd5fb"/>
    <rect x="424" y="313" width="12" height="60" rx="4" fill="#c4b9f5"/>
    <rect x="445" y="286" width="12" height="87" rx="4" fill="#6d4fd3"/>
    <path d="M400 308c22-4 35-21 60-31" fill="none" stroke="#168295" stroke-width="2.5"/>

    <!-- Agents -->
    <rect x="14" y="430" width="492" height="194" rx="22" fill="#fff" stroke="#dbe3ec"/>
    <rect x="14" y="430" width="5" height="194" rx="3" fill="#3b6ea8"/>
    <text x="42" y="463" fill="#3b6ea8" font-size="13" font-weight="750" letter-spacing="2">AGENTS · LLM WIKI</text>
    <text x="42" y="500" fill="#152238" font-size="25" font-weight="730">Knowledge → action</text>
    <text x="42" y="529" fill="#607089" font-size="16">retrieval · tools · safety</text>
    <rect x="42" y="559" width="98" height="32" rx="16" fill="#edf3fa"/>
    <text x="61" y="580" fill="#346291" font-size="13" font-weight="700">HYBRID RAG</text>
    <text x="164" y="580" fill="#8794a7" font-size="13" font-weight="650">multi-format</text>
    <rect x="404" y="475" width="38" height="47" rx="7" fill="#edf3fa" stroke="#b7c9dd"/>
    <rect x="404" y="541" width="38" height="47" rx="7" fill="#edf3fa" stroke="#b7c9dd"/>
    <circle cx="468" cy="531" r="24" fill="#3b6ea8"/>
    <path d="M458 531l7 7 14-17" fill="none" stroke="#fff" stroke-width="3.5" stroke-linecap="round" stroke-linejoin="round"/>
    <path d="M442 499h13c8 0 13 7 13 15M442 564h13c8 0 13-7 13-15" fill="none" stroke="#8ea7c2" stroke-width="2" stroke-dasharray="4 4"/>

    <!-- Algorithms -->
    <rect x="14" y="638" width="492" height="194" rx="22" fill="#fff" stroke="#dbe3ec"/>
    <rect x="14" y="638" width="5" height="194" rx="3" fill="#b36c0c"/>
    <text x="42" y="671" fill="#a4620b" font-size="13" font-weight="750" letter-spacing="2">ALGORITHMIC CORE · ICPC / CCPC</text>
    <text x="42" y="708" fill="#152238" font-size="25" font-weight="730">Think fast. Prove it.</text>
    <text x="42" y="737" fill="#607089" font-size="16">modeling · correctness · performance</text>
    <rect x="42" y="767" width="96" height="32" rx="16" fill="#fff3dd"/>
    <text x="65" y="788" fill="#945908" font-size="13" font-weight="750">2× GOLD</text>
    <rect x="148" y="767" width="104" height="32" rx="16" fill="#f1f3f6"/>
    <text x="170" y="788" fill="#657185" font-size="13" font-weight="750">3× SILVER</text>
    <path d="M433 675h46v20c0 31-23 52-46 59-23-7-46-28-46-59v-20h46z" fill="#fff5e5" stroke="#d79a40" stroke-width="2"/>
    <path d="M412 675v-11h42v11M416 711l10 10 20-24" fill="none" stroke="#b36c0c" stroke-width="3" stroke-linecap="round" stroke-linejoin="round"/>
    <circle cx="433" cy="778" r="17" fill="#b36c0c"/>
    <text x="428" y="784" fill="#fff" font-size="18" font-weight="800">1</text>

    <!-- Next -->
    <rect x="14" y="846" width="492" height="80" rx="20" fill="url(#next)" stroke="#dbe3ec"/>
    <text x="42" y="875" fill="#657185" font-size="11" font-weight="750" letter-spacing="2">NEXT VECTOR</text>
    <text x="42" y="903" fill="#27364d" font-size="15" font-weight="670">Embodied navigation</text>
    <circle cx="210" cy="898" r="4" fill="#168295"/>
    <text x="226" y="903" fill="#27364d" font-size="15" font-weight="670">RL</text>
    <circle cx="264" cy="898" r="4" fill="#6d4fd3"/>
    <text x="280" y="903" fill="#27364d" font-size="15" font-weight="670">Problem generation</text>
  </g>
</svg>
